<?xml version="1.0" encoding="UTF-8"?>
<svg width="512" height="512" viewBox="0 0 512 512" xmlns="http://www.w3.org/2000/svg" role="img" aria-label="The Daily Brain Bolt app icon">
  <defs>
    <!-- Background gradient -->
    <radialGradient id="blue-glow" cx="50%" cy="50%" r="60%">
      <stop offset="0%" stop-color="#2f86ff"/>
      <stop offset="50%" stop-color="#1a57e0"/>
      <stop offset="100%" stop-color="#0a2a43"/>
    </radialGradient>

    <!-- Inner highlight -->
    <radialGradient id="highlight" cx="35%" cy="30%" r="70%">
      <stop offset="0%" stop-color="rgba(255,255,255,0.4)"/>
      <stop offset="100%" stop-color="rgba(255,255,255,0)"/>
    </radialGradient>

    <!-- Bolt gradient -->
    <linearGradient id="boltFill" x1="0" y1="0" x2="1" y2="1">
      <stop offset="0%" stop-color="#ffffff"/>
      <stop offset="100%" stop-color="#e8f4ff"/>
    </linearGradient>

    <!-- Glow effect -->
    <filter id="glow" x="-50%" y="-50%" width="200%" height="200%">
      <feGaussianBlur stdDeviation="12" result="coloredBlur"/>
      <feMerge>
        <feMergeNode in="coloredBlur"/>
        <feMergeNode in="SourceGraphic"/>
      </feMerge>
    </filter>
  </defs>

  <!-- Outer circle -->
  <circle cx="256" cy="256" r="230" fill="url(#blue-glow)" filter="url(#glow)"/>

  <!-- Soft reflection -->
  <ellipse cx="200" cy="150" rx="160" ry="80" fill="url(#highlight)" opacity=".25"/>

  <!-- Bolt -->
  <path
    d="M280 120c5 0 8 5 6 10l-32 90h72c5 0 8 5 6 9L198 400c-3 5-11 2-10-4l30-110h-60c-5 0-8-6-5-10l122-152c2-3 4-4 6-4z"
    fill="url(#boltFill)"
    filter="url(#glow)"
  />

  <!-- Subtle rim -->
  <circle cx="256" cy="256" r="230" fill="none" stroke="rgba(255,255,255,0.12)" stroke-width="3"/>
</svg>
