<svg width="512" height="512" viewBox="0 0 512 512" xmlns="http://www.w3.org/2000/svg">
  <!-- Background -->
  <rect width="512" height="512" rx="96" fill="#1877F2"/>

  <!-- Glow halo -->
  <circle cx="256" cy="256" r="220" fill="url(#halo)" opacity="0.25"/>

  <!-- Main cloud -->
  <path d="M176 320c-40 0-72-32-72-72s32-72 72-72c8-40 48-72 96-72s88 32 96 72c40 0 72 32 72 72s-32 72-72 72H176z"
        fill="url(#cloudGradient)"
        stroke="url(#strokeGrad)"
        stroke-width="6"
        stroke-linejoin="round"
        filter="url(#glow)" />

  <!-- Small thought bubbles -->
  <circle cx="200" cy="380" r="22" fill="url(#bubbleGradient)" filter="url(#glowSm)"/>
  <circle cx="160" cy="420" r="14" fill="url(#bubbleGradient)" filter="url(#glowSm)"/>

  <defs>
    <!-- Cloud gradient -->
    <linearGradient id="cloudGradient" x1="160" y1="180" x2="340" y2="340" gradientUnits="userSpaceOnUse">
      <stop offset="0%" stop-color="#ffffff"/>
      <stop offset="100%" stop-color="#d7ebff"/>
    </linearGradient>

    <!-- Stroke gradient -->
    <linearGradient id="strokeGrad" x1="150" y1="160" x2="360" y2="360" gradientUnits="userSpaceOnUse">
      <stop offset="0%" stop-color="#ffffff" stop-opacity="0.9"/>
      <stop offset="100%" stop-color="#e0f1ff" stop-opacity="0.8"/>
    </linearGradient>

    <!-- Bubble gradient -->
    <linearGradient id="bubbleGradient" x1="0" y1="0" x2="0" y2="1">
      <stop offset="0%" stop-color="#ffffff"/>
      <stop offset="100%" stop-color="#cfe7ff"/>
    </linearGradient>

    <!-- Halo gradient -->
    <radialGradient id="halo" cx="50%" cy="40%" r="60%">
      <stop offset="0%" stop-color="#5ea2ff" stop-opacity="0.7"/>
      <stop offset="100%" stop-color="#1877F2" stop-opacity="0"/>
    </radialGradient>

    <!-- Filters -->
    <filter id="glow" x="0" y="0" width="512" height="512" filterUnits="userSpaceOnUse">
      <feGaussianBlur stdDeviation="10" result="blur"/>
      <feBlend in="SourceGraphic" in2="blur" mode="screen"/>
    </filter>

    <filter id="glowSm" x="0" y="0" width="512" height="512" filterUnits="userSpaceOnUse">
      <feGaussianBlur stdDeviation="6" result="blur"/>
      <feBlend in="SourceGraphic" in2="blur" mode="screen"/>
    </filter>
  </defs>
</svg>
