
<svg xmlns="http://www.w3.org/2000/svg" viewBox="0 0 512 512">
  <!-- Background -->
  <rect width="512" height="512" rx="96" fill="#1a4dd9"/>

  <!-- Flat white-blue cloud -->
  <path d="M176 320c-38 0-70-30-70-68s32-68 70-68c8-38 46-68 94-68s86 30 94 68c38 0 70 30 70 68s-32 68-70 68H176z"
        fill="#ffffff"/>

  <!-- Subtle layered highlight -->
  <path d="M176 320h188c30 0 54-24 54-54 0-26-20-48-46-53-6-32-37-56-76-56-43 0-78 29-81 67-33 3-58 25-58 52 0 27 24 50 53 50z"
        fill="#e6f2ff"/>

  <!-- Thought bubble tail -->
  <circle cx="200" cy="385" r="20" fill="#ffffff"/>
  <circle cx="165" cy="425" r="12" fill="#ffffff"/>

  <!-- Soft outline -->
  <path d="M176 320c-38 0-70-30-70-68s32-68 70-68c8-38 46-68 94-68s86 30 94 68c38 0 70 30 70 68s-32 68-70 68H176z"
        fill="none" stroke="#dbe4ff" stroke-width="6"/>
</svg>
